<mxfile host="Electron" modified="2024-01-29T06:27:29.878Z" agent="Mozilla/5.0 (Windows NT 10.0; Win64; x64) AppleWebKit/537.36 (KHTML, like Gecko) draw.io/22.1.16 Chrome/120.0.6099.109 Electron/28.1.0 Safari/537.36" etag="TFiqxaaTX6r57dtvcGUI" version="22.1.16" type="device">
  <diagram name="Page-1" id="nPsg9Te5sZwu5OZmn4z1">
    <mxGraphModel dx="880" dy="572" grid="0" gridSize="10" guides="1" tooltips="1" connect="1" arrows="1" fold="1" page="1" pageScale="1" pageWidth="900" pageHeight="1600" background="none" math="0" shadow="0">
      <root>
        <mxCell id="0" />
        <mxCell id="1" parent="0" />
        <mxCell id="xOoAKhtVyoCmIOMnbvx9-1" value="System&#39;s&amp;nbsp;authentication&amp;nbsp;" style="shape=umlFrame;whiteSpace=wrap;html=1;pointerEvents=0;width=170;height=30;" vertex="1" parent="1">
          <mxGeometry x="310" y="90" width="390" height="750" as="geometry" />
        </mxCell>
        <mxCell id="xOoAKhtVyoCmIOMnbvx9-4" value="" style="rounded=0;orthogonalLoop=1;jettySize=auto;html=1;exitX=0.5;exitY=0.667;exitDx=0;exitDy=0;exitPerimeter=0;strokeColor=#000000;" edge="1" parent="1" source="xOoAKhtVyoCmIOMnbvx9-2" target="xOoAKhtVyoCmIOMnbvx9-3">
          <mxGeometry relative="1" as="geometry" />
        </mxCell>
        <mxCell id="xOoAKhtVyoCmIOMnbvx9-26" style="rounded=0;orthogonalLoop=1;jettySize=auto;html=1;exitX=0.5;exitY=0.5;exitDx=0;exitDy=0;exitPerimeter=0;entryX=0;entryY=0.5;entryDx=0;entryDy=0;endArrow=none;endFill=0;strokeColor=#000000;" edge="1" parent="1" source="xOoAKhtVyoCmIOMnbvx9-2" target="xOoAKhtVyoCmIOMnbvx9-11">
          <mxGeometry relative="1" as="geometry" />
        </mxCell>
        <mxCell id="xOoAKhtVyoCmIOMnbvx9-27" style="rounded=0;orthogonalLoop=1;jettySize=auto;html=1;exitX=0.5;exitY=0.5;exitDx=0;exitDy=0;exitPerimeter=0;entryX=0;entryY=0.5;entryDx=0;entryDy=0;endArrow=none;endFill=0;strokeColor=#000000;" edge="1" parent="1" source="xOoAKhtVyoCmIOMnbvx9-2" target="xOoAKhtVyoCmIOMnbvx9-12">
          <mxGeometry relative="1" as="geometry" />
        </mxCell>
        <mxCell id="xOoAKhtVyoCmIOMnbvx9-2" value="User" style="shape=umlActor;verticalLabelPosition=bottom;verticalAlign=top;html=1;" vertex="1" parent="1">
          <mxGeometry x="160" y="290" width="30" height="60" as="geometry" />
        </mxCell>
        <mxCell id="xOoAKhtVyoCmIOMnbvx9-3" value="Student" style="shape=umlActor;verticalLabelPosition=bottom;verticalAlign=top;html=1;" vertex="1" parent="1">
          <mxGeometry x="210" y="470" width="30" height="60" as="geometry" />
        </mxCell>
        <mxCell id="xOoAKhtVyoCmIOMnbvx9-5" value="Instructor" style="shape=umlActor;verticalLabelPosition=bottom;verticalAlign=top;html=1;" vertex="1" parent="1">
          <mxGeometry x="10" y="470" width="30" height="60" as="geometry" />
        </mxCell>
        <mxCell id="xOoAKhtVyoCmIOMnbvx9-6" style="rounded=0;orthogonalLoop=1;jettySize=auto;html=1;exitX=0.5;exitY=0;exitDx=0;exitDy=0;exitPerimeter=0;entryX=0.5;entryY=0.5;entryDx=0;entryDy=0;entryPerimeter=0;startArrow=classic;startFill=1;endArrow=none;endFill=0;strokeColor=#000000;" edge="1" parent="1" source="xOoAKhtVyoCmIOMnbvx9-5" target="xOoAKhtVyoCmIOMnbvx9-2">
          <mxGeometry relative="1" as="geometry" />
        </mxCell>
        <mxCell id="xOoAKhtVyoCmIOMnbvx9-9" value="Admin" style="shape=umlActor;verticalLabelPosition=bottom;verticalAlign=top;html=1;" vertex="1" parent="1">
          <mxGeometry x="110" y="480" width="30" height="60" as="geometry" />
        </mxCell>
        <mxCell id="xOoAKhtVyoCmIOMnbvx9-10" style="rounded=0;orthogonalLoop=1;jettySize=auto;html=1;exitX=0.5;exitY=0;exitDx=0;exitDy=0;exitPerimeter=0;entryX=0.5;entryY=0.633;entryDx=0;entryDy=0;entryPerimeter=0;startArrow=classic;startFill=1;endArrow=none;endFill=0;strokeColor=#000000;" edge="1" parent="1" source="xOoAKhtVyoCmIOMnbvx9-9" target="xOoAKhtVyoCmIOMnbvx9-2">
          <mxGeometry relative="1" as="geometry" />
        </mxCell>
        <mxCell id="xOoAKhtVyoCmIOMnbvx9-17" style="rounded=0;orthogonalLoop=1;jettySize=auto;html=1;exitX=1;exitY=0.5;exitDx=0;exitDy=0;entryX=0;entryY=0.5;entryDx=0;entryDy=0;dashed=1;startArrow=classic;startFill=1;endArrow=none;endFill=0;strokeColor=#000000;" edge="1" parent="1" source="xOoAKhtVyoCmIOMnbvx9-11" target="xOoAKhtVyoCmIOMnbvx9-15">
          <mxGeometry relative="1" as="geometry" />
        </mxCell>
        <mxCell id="xOoAKhtVyoCmIOMnbvx9-18" value="&amp;lt;&amp;lt;include&amp;gt;&amp;gt;" style="edgeLabel;html=1;align=center;verticalAlign=middle;resizable=0;points=[];" vertex="1" connectable="0" parent="xOoAKhtVyoCmIOMnbvx9-17">
          <mxGeometry x="0.19" y="4" relative="1" as="geometry">
            <mxPoint as="offset" />
          </mxGeometry>
        </mxCell>
        <mxCell id="xOoAKhtVyoCmIOMnbvx9-11" value="Sign Up" style="ellipse;whiteSpace=wrap;html=1;" vertex="1" parent="1">
          <mxGeometry x="370" y="210" width="70" height="50" as="geometry" />
        </mxCell>
        <mxCell id="xOoAKhtVyoCmIOMnbvx9-12" value="Sign In" style="ellipse;whiteSpace=wrap;html=1;" vertex="1" parent="1">
          <mxGeometry x="398.5" y="500" width="70" height="60" as="geometry" />
        </mxCell>
        <mxCell id="xOoAKhtVyoCmIOMnbvx9-13" value="Submit form" style="ellipse;whiteSpace=wrap;html=1;" vertex="1" parent="1">
          <mxGeometry x="577.5" y="510" width="90" height="60" as="geometry" />
        </mxCell>
        <mxCell id="xOoAKhtVyoCmIOMnbvx9-14" value="Submit form" style="ellipse;whiteSpace=wrap;html=1;" vertex="1" parent="1">
          <mxGeometry x="567.5" y="160" width="70" height="50" as="geometry" />
        </mxCell>
        <mxCell id="xOoAKhtVyoCmIOMnbvx9-15" value="Fill Form" style="ellipse;whiteSpace=wrap;html=1;" vertex="1" parent="1">
          <mxGeometry x="497.5" y="110" width="70" height="50" as="geometry" />
        </mxCell>
        <mxCell id="xOoAKhtVyoCmIOMnbvx9-19" style="rounded=0;orthogonalLoop=1;jettySize=auto;html=1;exitX=0.5;exitY=1;exitDx=0;exitDy=0;entryX=0;entryY=0.5;entryDx=0;entryDy=0;dashed=1;startArrow=classic;startFill=1;endArrow=none;endFill=0;strokeColor=#000000;" edge="1" parent="1" source="xOoAKhtVyoCmIOMnbvx9-11" target="xOoAKhtVyoCmIOMnbvx9-14">
          <mxGeometry relative="1" as="geometry">
            <mxPoint x="450" y="245" as="sourcePoint" />
            <mxPoint x="530" y="205" as="targetPoint" />
          </mxGeometry>
        </mxCell>
        <mxCell id="xOoAKhtVyoCmIOMnbvx9-20" value="&amp;lt;&amp;lt;include&amp;gt;&amp;gt;" style="edgeLabel;html=1;align=center;verticalAlign=middle;resizable=0;points=[];" vertex="1" connectable="0" parent="xOoAKhtVyoCmIOMnbvx9-19">
          <mxGeometry x="0.19" y="4" relative="1" as="geometry">
            <mxPoint as="offset" />
          </mxGeometry>
        </mxCell>
        <mxCell id="xOoAKhtVyoCmIOMnbvx9-21" value="Fill Form" style="ellipse;whiteSpace=wrap;html=1;" vertex="1" parent="1">
          <mxGeometry x="550" y="440" width="70" height="50" as="geometry" />
        </mxCell>
        <mxCell id="xOoAKhtVyoCmIOMnbvx9-22" style="rounded=0;orthogonalLoop=1;jettySize=auto;html=1;entryX=0;entryY=0.5;entryDx=0;entryDy=0;dashed=1;startArrow=classic;startFill=1;endArrow=none;endFill=0;strokeColor=#000000;" edge="1" parent="1" source="xOoAKhtVyoCmIOMnbvx9-12" target="xOoAKhtVyoCmIOMnbvx9-21">
          <mxGeometry relative="1" as="geometry">
            <mxPoint x="475" y="570" as="sourcePoint" />
            <mxPoint x="555" y="475" as="targetPoint" />
          </mxGeometry>
        </mxCell>
        <mxCell id="xOoAKhtVyoCmIOMnbvx9-23" value="&amp;lt;&amp;lt;include&amp;gt;&amp;gt;" style="edgeLabel;html=1;align=center;verticalAlign=middle;resizable=0;points=[];" vertex="1" connectable="0" parent="xOoAKhtVyoCmIOMnbvx9-22">
          <mxGeometry x="0.19" y="4" relative="1" as="geometry">
            <mxPoint as="offset" />
          </mxGeometry>
        </mxCell>
        <mxCell id="xOoAKhtVyoCmIOMnbvx9-24" style="rounded=0;orthogonalLoop=1;jettySize=auto;html=1;exitX=0.75;exitY=0.917;exitDx=0;exitDy=0;entryX=0;entryY=0;entryDx=0;entryDy=0;dashed=1;startArrow=classic;startFill=1;endArrow=none;endFill=0;exitPerimeter=0;strokeColor=#000000;" edge="1" parent="1" source="xOoAKhtVyoCmIOMnbvx9-12" target="xOoAKhtVyoCmIOMnbvx9-13">
          <mxGeometry relative="1" as="geometry">
            <mxPoint x="464.74873734152925" y="591.2132034355964" as="sourcePoint" />
            <mxPoint x="565" y="555" as="targetPoint" />
          </mxGeometry>
        </mxCell>
        <mxCell id="xOoAKhtVyoCmIOMnbvx9-25" value="&amp;lt;&amp;lt;include&amp;gt;&amp;gt;" style="edgeLabel;html=1;align=center;verticalAlign=middle;resizable=0;points=[];" vertex="1" connectable="0" parent="xOoAKhtVyoCmIOMnbvx9-24">
          <mxGeometry x="0.19" y="4" relative="1" as="geometry">
            <mxPoint as="offset" />
          </mxGeometry>
        </mxCell>
        <mxCell id="xOoAKhtVyoCmIOMnbvx9-28" value="Check Credentials" style="ellipse;whiteSpace=wrap;html=1;" vertex="1" parent="1">
          <mxGeometry x="540" y="600" width="90" height="60" as="geometry" />
        </mxCell>
        <mxCell id="xOoAKhtVyoCmIOMnbvx9-29" style="rounded=0;orthogonalLoop=1;jettySize=auto;html=1;exitX=0.5;exitY=1;exitDx=0;exitDy=0;entryX=0;entryY=0;entryDx=0;entryDy=0;dashed=1;startArrow=classic;startFill=1;endArrow=none;endFill=0;strokeColor=#000000;" edge="1" target="xOoAKhtVyoCmIOMnbvx9-28" parent="1" source="xOoAKhtVyoCmIOMnbvx9-12">
          <mxGeometry relative="1" as="geometry">
            <mxPoint x="440" y="600" as="sourcePoint" />
            <mxPoint x="515" y="584.5" as="targetPoint" />
          </mxGeometry>
        </mxCell>
        <mxCell id="xOoAKhtVyoCmIOMnbvx9-30" value="&amp;lt;&amp;lt;include&amp;gt;&amp;gt;" style="edgeLabel;html=1;align=center;verticalAlign=middle;resizable=0;points=[];" vertex="1" connectable="0" parent="xOoAKhtVyoCmIOMnbvx9-29">
          <mxGeometry x="0.19" y="4" relative="1" as="geometry">
            <mxPoint as="offset" />
          </mxGeometry>
        </mxCell>
        <mxCell id="xOoAKhtVyoCmIOMnbvx9-31" style="rounded=0;orthogonalLoop=1;jettySize=auto;html=1;exitX=0;exitY=1;exitDx=0;exitDy=0;entryX=0;entryY=0.5;entryDx=0;entryDy=0;dashed=1;startArrow=classic;startFill=1;endArrow=none;endFill=0;strokeColor=#000000;" edge="1" target="xOoAKhtVyoCmIOMnbvx9-33" parent="1" source="xOoAKhtVyoCmIOMnbvx9-11">
          <mxGeometry relative="1" as="geometry">
            <mxPoint x="372.5" y="300" as="sourcePoint" />
            <mxPoint x="497.5" y="245" as="targetPoint" />
          </mxGeometry>
        </mxCell>
        <mxCell id="xOoAKhtVyoCmIOMnbvx9-32" value="&amp;lt;&amp;lt;include&amp;gt;&amp;gt;" style="edgeLabel;html=1;align=center;verticalAlign=middle;resizable=0;points=[];" vertex="1" connectable="0" parent="xOoAKhtVyoCmIOMnbvx9-31">
          <mxGeometry x="0.19" y="4" relative="1" as="geometry">
            <mxPoint as="offset" />
          </mxGeometry>
        </mxCell>
        <mxCell id="xOoAKhtVyoCmIOMnbvx9-33" value="Validate user input" style="ellipse;whiteSpace=wrap;html=1;" vertex="1" parent="1">
          <mxGeometry x="577.5" y="230" width="70" height="50" as="geometry" />
        </mxCell>
        <mxCell id="xOoAKhtVyoCmIOMnbvx9-34" value="Check for existing accounts" style="ellipse;whiteSpace=wrap;html=1;" vertex="1" parent="1">
          <mxGeometry x="487.5" y="350" width="70" height="50" as="geometry" />
        </mxCell>
        <mxCell id="xOoAKhtVyoCmIOMnbvx9-35" style="rounded=0;orthogonalLoop=1;jettySize=auto;html=1;exitX=0;exitY=1;exitDx=0;exitDy=0;entryX=0;entryY=0.5;entryDx=0;entryDy=0;dashed=1;startArrow=classic;startFill=1;endArrow=none;endFill=0;strokeColor=#000000;" edge="1" target="xOoAKhtVyoCmIOMnbvx9-34" parent="1" source="xOoAKhtVyoCmIOMnbvx9-11">
          <mxGeometry relative="1" as="geometry">
            <mxPoint x="361" y="320" as="sourcePoint" />
            <mxPoint x="478.5" y="312" as="targetPoint" />
          </mxGeometry>
        </mxCell>
        <mxCell id="xOoAKhtVyoCmIOMnbvx9-36" value="&amp;lt;&amp;lt;include&amp;gt;&amp;gt;" style="edgeLabel;html=1;align=center;verticalAlign=middle;resizable=0;points=[];" vertex="1" connectable="0" parent="xOoAKhtVyoCmIOMnbvx9-35">
          <mxGeometry x="0.19" y="4" relative="1" as="geometry">
            <mxPoint as="offset" />
          </mxGeometry>
        </mxCell>
        <mxCell id="xOoAKhtVyoCmIOMnbvx9-37" value="Create profile" style="ellipse;whiteSpace=wrap;html=1;" vertex="1" parent="1">
          <mxGeometry x="403.51" y="407" width="70" height="50" as="geometry" />
        </mxCell>
        <mxCell id="xOoAKhtVyoCmIOMnbvx9-38" style="rounded=0;orthogonalLoop=1;jettySize=auto;html=1;exitX=0;exitY=1;exitDx=0;exitDy=0;entryX=0;entryY=0.5;entryDx=0;entryDy=0;dashed=1;startArrow=classic;startFill=1;endArrow=none;endFill=0;strokeColor=#000000;" edge="1" target="xOoAKhtVyoCmIOMnbvx9-37" parent="1" source="xOoAKhtVyoCmIOMnbvx9-11">
          <mxGeometry relative="1" as="geometry">
            <mxPoint x="360" y="260" as="sourcePoint" />
            <mxPoint x="413.51" y="372" as="targetPoint" />
          </mxGeometry>
        </mxCell>
        <mxCell id="xOoAKhtVyoCmIOMnbvx9-39" value="&amp;lt;&amp;lt;include&amp;gt;&amp;gt;" style="edgeLabel;html=1;align=center;verticalAlign=middle;resizable=0;points=[];" vertex="1" connectable="0" parent="xOoAKhtVyoCmIOMnbvx9-38">
          <mxGeometry x="0.19" y="4" relative="1" as="geometry">
            <mxPoint as="offset" />
          </mxGeometry>
        </mxCell>
        <mxCell id="xOoAKhtVyoCmIOMnbvx9-40" value="Handle authentication errors" style="ellipse;whiteSpace=wrap;html=1;" vertex="1" parent="1">
          <mxGeometry x="313.51" y="670" width="90" height="60" as="geometry" />
        </mxCell>
        <mxCell id="xOoAKhtVyoCmIOMnbvx9-41" style="rounded=0;orthogonalLoop=1;jettySize=auto;html=1;exitX=0;exitY=1;exitDx=0;exitDy=0;entryX=0;entryY=0;entryDx=0;entryDy=0;dashed=1;startArrow=classic;startFill=1;endArrow=none;endFill=0;strokeColor=#000000;" edge="1" target="xOoAKhtVyoCmIOMnbvx9-40" parent="1" source="xOoAKhtVyoCmIOMnbvx9-12">
          <mxGeometry relative="1" as="geometry">
            <mxPoint x="381.01" y="640" as="sourcePoint" />
            <mxPoint x="456.01" y="624.5" as="targetPoint" />
          </mxGeometry>
        </mxCell>
        <mxCell id="xOoAKhtVyoCmIOMnbvx9-42" value="&amp;lt;&amp;lt;include&amp;gt;&amp;gt;" style="edgeLabel;html=1;align=center;verticalAlign=middle;resizable=0;points=[];" vertex="1" connectable="0" parent="xOoAKhtVyoCmIOMnbvx9-41">
          <mxGeometry x="0.19" y="4" relative="1" as="geometry">
            <mxPoint as="offset" />
          </mxGeometry>
        </mxCell>
        <mxCell id="xOoAKhtVyoCmIOMnbvx9-46" value="Forgot Password&lt;span style=&quot;color: rgb(209, 213, 219); font-family: Söhne, ui-sans-serif, system-ui, -apple-system, &amp;quot;Segoe UI&amp;quot;, Roboto, Ubuntu, Cantarell, &amp;quot;Noto Sans&amp;quot;, sans-serif, &amp;quot;Helvetica Neue&amp;quot;, Arial, &amp;quot;Apple Color Emoji&amp;quot;, &amp;quot;Segoe UI Emoji&amp;quot;, &amp;quot;Segoe UI Symbol&amp;quot;, &amp;quot;Noto Color Emoji&amp;quot;; font-size: 16px; text-align: left; background-color: rgb(52, 53, 65);&quot;&gt;:&lt;/span&gt;" style="ellipse;whiteSpace=wrap;html=1;" vertex="1" parent="1">
          <mxGeometry x="477.5" y="680" width="90" height="60" as="geometry" />
        </mxCell>
        <mxCell id="xOoAKhtVyoCmIOMnbvx9-47" style="rounded=0;orthogonalLoop=1;jettySize=auto;html=1;exitX=0.5;exitY=1;exitDx=0;exitDy=0;entryX=0;entryY=0;entryDx=0;entryDy=0;dashed=1;startArrow=none;startFill=0;endArrow=classic;endFill=1;strokeColor=#000000;" edge="1" target="xOoAKhtVyoCmIOMnbvx9-46" parent="1" source="xOoAKhtVyoCmIOMnbvx9-12">
          <mxGeometry relative="1" as="geometry">
            <mxPoint x="507.5" y="580" as="sourcePoint" />
            <mxPoint x="554.51" y="653.5" as="targetPoint" />
          </mxGeometry>
        </mxCell>
        <mxCell id="xOoAKhtVyoCmIOMnbvx9-48" value="&amp;lt;&amp;lt;extend&amp;gt;&amp;gt;" style="edgeLabel;html=1;align=center;verticalAlign=middle;resizable=0;points=[];" vertex="1" connectable="0" parent="xOoAKhtVyoCmIOMnbvx9-47">
          <mxGeometry x="0.19" y="4" relative="1" as="geometry">
            <mxPoint as="offset" />
          </mxGeometry>
        </mxCell>
        <mxCell id="xOoAKhtVyoCmIOMnbvx9-49" style="rounded=0;orthogonalLoop=1;jettySize=auto;html=1;exitX=0.364;exitY=0.967;exitDx=0;exitDy=0;entryX=0;entryY=0;entryDx=0;entryDy=0;dashed=1;startArrow=none;startFill=0;endArrow=classic;endFill=1;exitPerimeter=0;strokeColor=#000000;" edge="1" target="xOoAKhtVyoCmIOMnbvx9-51" parent="1" source="xOoAKhtVyoCmIOMnbvx9-12">
          <mxGeometry relative="1" as="geometry">
            <mxPoint x="386.5" y="610" as="sourcePoint" />
            <mxPoint x="507.01" y="703.5" as="targetPoint" />
          </mxGeometry>
        </mxCell>
        <mxCell id="xOoAKhtVyoCmIOMnbvx9-50" value="&amp;lt;&amp;lt;extend&amp;gt;&amp;gt;" style="edgeLabel;html=1;align=center;verticalAlign=middle;resizable=0;points=[];" vertex="1" connectable="0" parent="xOoAKhtVyoCmIOMnbvx9-49">
          <mxGeometry x="0.19" y="4" relative="1" as="geometry">
            <mxPoint as="offset" />
          </mxGeometry>
        </mxCell>
        <mxCell id="xOoAKhtVyoCmIOMnbvx9-51" value="Social Media&lt;br&gt;sign in" style="ellipse;whiteSpace=wrap;html=1;" vertex="1" parent="1">
          <mxGeometry x="430" y="730" width="90" height="60" as="geometry" />
        </mxCell>
        <mxCell id="xOoAKhtVyoCmIOMnbvx9-52" style="rounded=0;orthogonalLoop=1;jettySize=auto;html=1;entryX=0;entryY=0;entryDx=0;entryDy=0;dashed=1;startArrow=none;startFill=0;endArrow=classic;endFill=1;strokeColor=#000000;" edge="1" parent="1" target="xOoAKhtVyoCmIOMnbvx9-54">
          <mxGeometry relative="1" as="geometry">
            <mxPoint x="420" y="250" as="sourcePoint" />
            <mxPoint x="657.51" y="334.5" as="targetPoint" />
          </mxGeometry>
        </mxCell>
        <mxCell id="xOoAKhtVyoCmIOMnbvx9-53" value="&amp;lt;&amp;lt;extend&amp;gt;&amp;gt;" style="edgeLabel;html=1;align=center;verticalAlign=middle;resizable=0;points=[];" vertex="1" connectable="0" parent="xOoAKhtVyoCmIOMnbvx9-52">
          <mxGeometry x="0.19" y="4" relative="1" as="geometry">
            <mxPoint as="offset" />
          </mxGeometry>
        </mxCell>
        <mxCell id="xOoAKhtVyoCmIOMnbvx9-54" value="Social Media&lt;br&gt;sign up" style="ellipse;whiteSpace=wrap;html=1;" vertex="1" parent="1">
          <mxGeometry x="590" y="320" width="90" height="60" as="geometry" />
        </mxCell>
      </root>
    </mxGraphModel>
  </diagram>
</mxfile>
